<?xml version="1.0" encoding="UTF-8"?>
<svg width="20px" height="20px" viewBox="0 0 20 20" version="1.1" xmlns="http://www.w3.org/2000/svg" xmlns:xlink="http://www.w3.org/1999/xlink">
    <!-- Generator: Sketch 51.3 (57544) - http://www.bohemiancoding.com/sketch -->
    <title>m_facebook</title>
    <desc>Created with Sketch.</desc>
    <defs></defs>
    <g id="m_facebook" stroke="none" stroke-width="1" fill="none" fill-rule="evenodd">
        <path d="M20,10 C20,4.47714844 15.5228516,0 10,0 C4.47714844,0 0,4.47714844 0,10 C0,14.9912891 3.65685547,19.1283203 8.4375,19.878457 L8.4375,12.890625 L5.8984375,12.890625 L5.8984375,10 L8.4375,10 L8.4375,7.796875 C8.4375,5.290625 9.93042969,3.90625 12.2146484,3.90625 C13.3087305,3.90625 14.453125,4.1015625 14.453125,4.1015625 L14.453125,6.5625 L13.1921484,6.5625 C11.9499023,6.5625 11.5625,7.33333984 11.5625,8.12416016 L11.5625,10 L14.3359375,10 L13.8925781,12.890625 L11.5625,12.890625 L11.5625,19.878457 C16.3431445,19.1283203 20,14.9912891 20,10" id="Fill-1" fill="#505050"></path>
        <path d="M13.8925742,12.890625 L14.3359336,10 L11.5624961,10 L11.5624961,8.12416016 C11.5624961,7.33333984 11.9498984,6.5625 13.1921445,6.5625 L14.4531211,6.5625 L14.4531211,4.1015625 C14.4531211,4.1015625 13.3087266,3.90625 12.2146445,3.90625 C9.93044531,3.90625 8.43749609,5.290625 8.43749609,7.796875 L8.43749609,10 L5.89843359,10 L5.89843359,12.890625 L8.43749609,12.890625 L8.43749609,19.878457 C8.94663672,19.9583594 9.46843359,20 9.99999609,20 C10.5315586,20 11.053375,19.9583594 11.5624961,19.878457 L11.5624961,12.890625 L13.8925742,12.890625 Z" id="Fill-3" fill="#FFFFFF"></path>
    </g>
</svg>