<?xml version="1.0" encoding="UTF-8"?>
<svg width="20px" height="20px" viewBox="0 0 20 20" version="1.1" xmlns="http://www.w3.org/2000/svg" xmlns:xlink="http://www.w3.org/1999/xlink">
    <!-- Generator: Sketch 51.3 (57544) - http://www.bohemiancoding.com/sketch -->
    <title>m_instagram</title>
    <desc>Created with Sketch.</desc>
    <defs></defs>
    <g id="m_instagram" stroke="none" stroke-width="1" fill="none" fill-rule="evenodd">
        <path d="M9.99684524,0.0396079208 C7.28188492,0.0396079208 6.94140873,0.0510930693 5.87517857,0.0996475248 C4.81109127,0.148083168 4.0844246,0.316756436 3.4485119,0.563409901 C2.79117063,0.818340594 2.23363095,1.15948911 1.67787698,1.71414257 C1.12208333,2.26883564 0.780297619,2.82523168 0.524821429,3.48127129 C0.277678571,4.11592475 0.108710317,4.84115248 0.0601388889,5.90313267 C0.0114880952,6.96729109 1.98412698e-05,7.30701386 1.98412698e-05,10.0166376 C1.98412698e-05,12.7262614 0.0114880952,13.0660238 0.0601388889,14.1301822 C0.108710317,15.1921228 0.277678571,15.9173901 0.524821429,16.552004 C0.780297619,17.2080436 1.12208333,17.7644792 1.67787698,18.3191327 C2.23363095,18.8738257 2.79117063,19.2149347 3.4485119,19.4699446 C4.0844246,19.7165584 4.81109127,19.8852317 5.87517857,19.9337069 C6.94140873,19.9822218 7.28188492,19.9937069 9.99684524,19.9937069 C12.7118452,19.9937069 13.0522421,19.9822218 14.1185119,19.9337069 C15.1825992,19.8852317 15.9092659,19.7165584 16.5451786,19.4699446 C17.2025595,19.2149347 17.7600595,18.8738257 18.3158135,18.3191327 C18.8716071,17.7644792 19.2133929,17.2080832 19.468869,16.552004 C19.7160119,15.9173901 19.8850198,15.1921228 19.9335516,14.1301822 C19.9822024,13.0660238 19.9937103,12.7262614 19.9937103,10.0166376 C19.9937103,7.30705347 19.9822024,6.96729109 19.9335516,5.90313267 C19.8850198,4.84115248 19.7160119,4.11592475 19.468869,3.48127129 C19.2133929,2.82523168 18.8716071,2.26883564 18.3158135,1.71414257 C17.7600595,1.15948911 17.2025595,0.818340594 16.5451786,0.563409901 C15.9092659,0.316756436 15.1825992,0.148083168 14.1185119,0.0996475248 C13.0522421,0.0510930693 12.7118452,0.0396079208 9.99684524,0.0396079208 M9.99684524,1.83727129 C12.666131,1.83727129 12.9822817,1.8474099 14.0364087,1.8954099 C15.0110913,1.93980594 15.5404167,2.10234059 15.8926786,2.23897426 C16.3593056,2.41996436 16.6923611,2.63616238 17.0421627,2.98527129 C17.3919643,3.3344198 17.6085913,3.66677624 17.7899802,4.13247921 C17.9268452,4.48404356 18.0897024,5.01232079 18.1341865,5.98507327 C18.1822421,7.03711287 18.1924405,7.35267723 18.1924405,10.0166376 C18.1924405,12.6806376 18.1822421,12.996202 18.1341865,14.048202 C18.0897024,15.0209941 17.9268452,15.5492713 17.7899802,15.9008356 C17.6085913,16.366499 17.3919643,16.698895 17.0421627,17.048004 C16.6923611,17.3971525 16.3593056,17.6133505 15.8926786,17.7943406 C15.5404167,17.9309347 15.0110913,18.0935089 14.0364087,18.1378653 C12.9824405,18.1858653 12.6663294,18.1960436 9.99684524,18.1960436 C7.32736111,18.1960436 7.01125,18.1858653 5.95728175,18.1378653 C4.98259921,18.0935089 4.45323413,17.9309347 4.10097222,17.7943406 C3.63438492,17.6133505 3.30132937,17.3971525 2.95152778,17.048004 C2.60172619,16.698895 2.38505952,16.366499 2.20371032,15.9008356 C2.06684524,15.5492713 1.9039881,15.0209941 1.85950397,14.0482416 C1.81140873,12.996202 1.80125,12.6806376 1.80125,10.0166376 C1.80125,7.35267723 1.81140873,7.03711287 1.85950397,5.98507327 C1.9039881,5.01232079 2.06684524,4.48404356 2.20371032,4.13247921 C2.38505952,3.66677624 2.60172619,3.3344198 2.95152778,2.98531089 C3.30132937,2.63616238 3.63438492,2.41996436 4.10097222,2.23897426 C4.45323413,2.10234059 4.98259921,1.93980594 5.95724206,1.8954099 C7.01140873,1.8474099 7.32755952,1.83727129 9.99684524,1.83727129" id="Fill-1" fill="#505050"></path>
        <path d="M9.99684524,13.3423406 C8.1564881,13.3423406 6.66454365,11.8533505 6.66454365,10.0166376 C6.66454365,8.17992475 8.1564881,6.69097426 9.99684524,6.69097426 C11.8372024,6.69097426 13.3291468,8.17992475 13.3291468,10.0166376 C13.3291468,11.8533505 11.8372024,13.3423406 9.99684524,13.3423406 M9.99684524,4.89331089 C7.16168651,4.89331089 4.86331349,7.18709307 4.86331349,10.0166376 C4.86331349,12.8462218 7.16168651,15.140004 9.99684524,15.140004 C12.832004,15.140004 15.1303373,12.8462218 15.1303373,10.0166376 C15.1303373,7.18709307 12.832004,4.89331089 9.99684524,4.89331089" id="Fill-4" fill="#505050"></path>
        <path d="M16.5328016,4.69088713 C16.5328016,5.35211485 15.9957381,5.88811485 15.3331984,5.88811485 C14.6706587,5.88811485 14.1335556,5.35211485 14.1335556,4.69088713 C14.1335556,4.02965941 14.6706587,3.49365941 15.3331984,3.49365941 C15.9957381,3.49365941 16.5328016,4.02965941 16.5328016,4.69088713" id="Fill-6" fill="#505050"></path>
    </g>
</svg>