<?xml version="1.0" encoding="UTF-8"?>
<svg width="28px" height="20px" viewBox="0 0 28 20" version="1.1" xmlns="http://www.w3.org/2000/svg" xmlns:xlink="http://www.w3.org/1999/xlink">
    <!-- Generator: Sketch 51.3 (57544) - http://www.bohemiancoding.com/sketch -->
    <title>m_youtube</title>
    <desc>Created with Sketch.</desc>
    <defs></defs>
    <g id="m_youtube" stroke="none" stroke-width="1" fill="none" fill-rule="evenodd">
        <path d="M27.4149114,3.12303226 C27.0929114,1.89367742 26.1442523,0.925612903 24.9392977,0.597064516 C22.7559341,-3.22580645e-05 14.0000477,-3.22580645e-05 14.0000477,-3.22580645e-05 C14.0000477,-3.22580645e-05 5.24416136,-3.22580645e-05 3.06063864,0.597064516 C1.85584318,0.925612903 0.907025,1.89367742 0.585025,3.12303226 C4.77272727e-05,5.35109677 4.77272727e-05,9.99996774 4.77272727e-05,9.99996774 C4.77272727e-05,9.99996774 4.77272727e-05,14.6486774 0.585025,16.8770645 C0.907025,18.1062581 1.85584318,19.0743226 3.06063864,19.4030323 C5.24416136,19.9999677 14.0000477,19.9999677 14.0000477,19.9999677 C14.0000477,19.9999677 22.7559341,19.9999677 24.9392977,19.4030323 C26.1442523,19.0743226 27.0929114,18.1062581 27.4149114,16.8770645 C28.0000477,14.6486774 28.0000477,9.99996774 28.0000477,9.99996774 C28.0000477,9.99996774 28.0000477,5.35109677 27.4149114,3.12303226" id="Fill-1" fill="#505050"></path>
        <polygon id="Fill-4" fill="#FFFFFF" points="11.1363636 14.2207903 18.4545455 10.0001452 11.1363636 5.77917742"></polygon>
    </g>
</svg>