<svg xmlns="http://www.w3.org/2000/svg" xmlns:xlink="http://www.w3.org/1999/xlink" width="15" height="12" viewBox="0 0 15 12">
    <defs>
        <path id="a" d="M0 .097h14.802v4.729H0z"/>
        <path id="c" d="M0 .122h14.802V8H0z"/>
    </defs>
    <g fill="none" fill-rule="evenodd">
        <g>
            <mask id="b" fill="#fff">
                <use xlink:href="#a"/>
            </mask>
            <path fill="#262626" d="M1.571 4.826a1.6 1.6 0 0 0 .859-.249A9.257 9.257 0 0 1 7.4 3.141c1.773 0 3.492.496 4.972 1.436.725.46 1.698.264 2.172-.44a1.494 1.494 0 0 0-.453-2.106A12.454 12.454 0 0 0 7.402.097C5.015.097 2.701.765.71 2.03a1.494 1.494 0 0 0-.453 2.106c.301.447.803.689 1.314.689" mask="url(#b)"/>
        </g>
        <g transform="translate(0 4)">
            <mask id="d" fill="#fff">
                <use xlink:href="#c"/>
            </mask>
            <path fill="#262626" d="M7.157 6.563a2.52 2.52 0 0 1-2.515-2.525 2.52 2.52 0 0 1 2.515-2.525 2.52 2.52 0 0 1 2.516 2.525 2.52 2.52 0 0 1-2.516 2.525m7.168-1.86A7.533 7.533 0 0 0 7.4.122C3.874.122.776 2.632.035 6.093c-.1.465.016.95.314 1.322.298.37.747.585 1.221.585h11.662c.475 0 .924-.215 1.221-.585a1.58 1.58 0 0 0 .314-1.322 7.468 7.468 0 0 0-.442-1.39" mask="url(#d)"/>
        </g>
    </g>
</svg>
