<svg width="20" height="20" viewBox="0 0 20 20" fill="none" xmlns="http://www.w3.org/2000/svg">
<path fill-rule="evenodd" clip-rule="evenodd" d="M2.92958 2.91988C2.41797 3.42928 1.97119 3.98589 1.58839 4.57706L0.879185 5.87572C0.304995 7.146 0 8.53457 0 9.96979C0 12.6329 1.04042 15.1366 2.92958 17.0194C3.12267 17.2116 3.32393 17.3934 3.52942 17.5676L4.00986 17.918C4.10811 17.9925 4.20778 18.0651 4.30883 18.136L4.72374 18.4386C6.29241 19.4142 8.10546 19.9382 9.99997 19.9382L10.0143 19.9382L10.0286 19.9382C11.5886 19.9382 13.0649 19.58 14.3798 18.9415L18.6204 19.9757C19.2042 20.1181 19.7415 19.613 19.6352 19.0217L18.8456 14.6294C18.9106 14.5069 18.973 14.3828 19.0329 14.2574C19.6821 12.8994 20.0008 11.4343 20 9.97458V9.96908C20 4.46331 15.5357 0 10.0286 0L10.0155 8.48253e-06L10.0022 0C7.33029 0 4.81817 1.03679 2.92958 2.91988ZM13.6235 17.4611C12.5356 17.9838 11.3163 18.2767 10.0286 18.2767C5.43941 18.2767 1.71912 14.5572 1.71912 9.96908C1.71912 5.38094 5.43941 1.66151 10.0286 1.66151C14.6178 1.66151 18.3381 5.38094 18.3381 9.96908C18.3381 11.4384 17.9566 12.8185 17.2872 14.016C17.2872 14.016 16.8424 14.5382 17.0086 15.369C17.1748 16.1998 17.3967 16.6863 17.3967 16.6863L17.7085 17.9216L16.4411 17.6036C16.4411 17.6036 15.8453 17.4459 15.0143 17.2797C14.1834 17.1136 13.6445 17.4406 13.6445 17.4406C13.6374 17.4474 13.6303 17.4542 13.6235 17.4611Z" fill="#CECECE"/>
</svg>
