<svg width="22" height="22" viewBox="0 0 22 22" fill="none" xmlns="http://www.w3.org/2000/svg">
<path d="M21.2 6.775L12.2 0.375C11.5 -0.125 10.6 -0.125 9.9 0.375L0.9 6.775C0.3 7.175 0 7.775 0 8.375V20.975C0 21.575 0.4 21.975 1 21.975C1.6 21.975 2 21.575 2 20.975V8.375L11 1.975L20 8.375V20.975C20 21.575 20.4 21.975 21 21.975C21.6 21.975 22 21.575 22 20.975V8.375C22 7.775 21.7 7.175 21.2 6.775Z" fill="white"/>
<path d="M13 13.9751H9C7.9 13.9751 7 14.8751 7 15.9751V20.9751C7 21.5751 7.4 21.9751 8 21.9751H14C14.6 21.9751 15 21.5751 15 20.9751V15.9751C15 14.8751 14.1 13.9751 13 13.9751Z" fill="white"/>
</svg>
