<svg width="120" height="23" viewBox="0 0 120 23" fill="none" xmlns="http://www.w3.org/2000/svg">
<path d="M7.46401 13.3L4.83201 16.044V21H0.324005V1.39996H4.83201V10.556L13.512 1.39996H18.552L10.432 10.136L19.028 21H13.736L7.46401 13.3Z" fill="white"/>
<path d="M33.1286 21L29.3486 15.54H29.1246H25.1766V21H20.6406V1.39996H29.1246C30.8606 1.39996 32.3632 1.6893 33.6326 2.26796C34.9206 2.84663 35.9099 3.66796 36.6006 4.73196C37.2912 5.79596 37.6366 7.05596 37.6366 8.51197C37.6366 9.96797 37.2819 11.228 36.5726 12.292C35.8819 13.3373 34.8926 14.14 33.6046 14.7L38.0006 21H33.1286ZM33.0446 8.51197C33.0446 7.41063 32.6899 6.57063 31.9806 5.99196C31.2712 5.39463 30.2352 5.09596 28.8726 5.09596H25.1766V11.928H28.8726C30.2352 11.928 31.2712 11.6293 31.9806 11.032C32.6899 10.4346 33.0446 9.59463 33.0446 8.51197Z" fill="white"/>
<path d="M55.9964 17.36V21H40.8204V1.39996H55.6324V5.03996H45.3284V9.29597H54.4284V12.824H45.3284V17.36H55.9964Z" fill="white"/>
<path d="M71.2662 10.696C72.2369 11.1813 72.9742 11.816 73.4782 12.6C74.0009 13.384 74.2622 14.2893 74.2622 15.316C74.2622 16.5293 73.9169 17.5933 73.2262 18.508C72.5355 19.404 71.5649 20.104 70.3142 20.608C69.0635 21.0933 67.6169 21.336 65.9742 21.336C64.3315 21.336 62.8849 21.0933 61.6342 20.608C60.4022 20.104 59.4409 19.404 58.7502 18.508C58.0782 17.5933 57.7422 16.5293 57.7422 15.316C57.7422 14.2893 57.9942 13.384 58.4982 12.6C59.0209 11.816 59.7582 11.1813 60.7102 10.696C59.9822 10.248 59.4222 9.68796 59.0302 9.01596C58.6382 8.3253 58.4422 7.5413 58.4422 6.66396C58.4422 5.5253 58.7595 4.53596 59.3942 3.69596C60.0289 2.85596 60.9155 2.21196 62.0542 1.76396C63.1929 1.2973 64.4995 1.06396 65.9742 1.06396C67.4675 1.06396 68.7835 1.2973 69.9222 1.76396C71.0795 2.21196 71.9755 2.85596 72.6102 3.69596C73.2449 4.53596 73.5622 5.5253 73.5622 6.66396C73.5622 7.5413 73.3662 8.3253 72.9742 9.01596C72.5822 9.68796 72.0129 10.248 71.2662 10.696ZM65.9742 4.39596C65.0595 4.39596 64.3222 4.61996 63.7622 5.06797C63.2209 5.4973 62.9502 6.09463 62.9502 6.85997C62.9502 7.60663 63.2209 8.19463 63.7622 8.62396C64.3035 9.0533 65.0409 9.26797 65.9742 9.26797C66.9075 9.26797 67.6542 9.0533 68.2142 8.62396C68.7742 8.19463 69.0542 7.60663 69.0542 6.85997C69.0542 6.09463 68.7742 5.4973 68.2142 5.06797C67.6542 4.61996 66.9075 4.39596 65.9742 4.39596ZM65.9742 18.004C67.1129 18.004 68.0089 17.752 68.6622 17.248C69.3342 16.7253 69.6702 16.0346 69.6702 15.176C69.6702 14.3173 69.3342 13.636 68.6622 13.132C68.0089 12.628 67.1129 12.376 65.9742 12.376C64.8542 12.376 63.9675 12.628 63.3142 13.132C62.6609 13.636 62.3342 14.3173 62.3342 15.176C62.3342 16.0533 62.6609 16.744 63.3142 17.248C63.9675 17.752 64.8542 18.004 65.9742 18.004Z" fill="white"/>
<path d="M78.778 21.224C78.0127 21.224 77.3687 20.9626 76.846 20.44C76.3233 19.9173 76.062 19.264 76.062 18.48C76.062 17.6773 76.3233 17.0333 76.846 16.548C77.3687 16.044 78.0127 15.792 78.778 15.792C79.5433 15.792 80.1873 16.044 80.71 16.548C81.2327 17.0333 81.494 17.6773 81.494 18.48C81.494 19.264 81.2327 19.9173 80.71 20.44C80.1873 20.9626 79.5433 21.224 78.778 21.224Z" fill="white"/>
<path d="M88.4121 5.09596H82.1401V1.39996H99.2201V5.09596H92.9481V21H88.4121V5.09596Z" fill="white"/>
<path d="M118.739 1.39996L110.255 21H105.775L97.3193 1.39996H102.219L108.183 15.4L114.231 1.39996H118.739Z" fill="white"/>
</svg>
