<svg width="20" height="25" viewBox="0 0 20 25" fill="none" xmlns="http://www.w3.org/2000/svg">
<path d="M19.8766 23.2751L19.6766 22.6751C18.1766 18.9751 16.9766 15.9751 9.97664 15.9751C2.97664 15.9751 1.77665 18.8751 0.276645 22.6751L0.0766407 23.2751C-0.123359 23.7751 0.0766407 24.3751 0.576641 24.5751C1.07664 24.7751 1.67664 24.5751 1.87664 24.0751L2.17664 23.4751C3.67664 19.8751 4.37664 18.0751 9.97664 18.0751C15.5766 18.0751 16.3766 19.8751 17.7766 23.4751L17.9766 24.0751C18.1766 24.4751 18.4766 24.6751 18.8766 24.6751C18.9766 24.6751 19.1766 24.6751 19.2766 24.5751C19.8766 24.3751 20.0766 23.7751 19.8766 23.2751Z" fill="white"/>
<path d="M9.97656 14.9751C13.8766 14.9751 16.9766 11.8751 16.9766 7.9751C16.9766 4.0751 13.8766 0.975098 9.97656 0.975098C6.07656 0.975098 2.97656 4.0751 2.97656 7.9751C2.97656 11.8751 6.07656 14.9751 9.97656 14.9751ZM9.97656 2.9751C12.7766 2.9751 14.9766 5.1751 14.9766 7.9751C14.9766 10.7751 12.7766 12.9751 9.97656 12.9751C7.17656 12.9751 4.97656 10.7751 4.97656 7.9751C4.97656 5.1751 7.17656 2.9751 9.97656 2.9751Z" fill="white"/>
</svg>
