<svg width="24" height="24" viewBox="0 0 24 24" fill="none" xmlns="http://www.w3.org/2000/svg">
<path d="M11.9999 23.9999C18.6273 23.9999 23.9999 18.6273 23.9999 11.9999C23.9999 5.37255 18.6273 0 11.9999 0C5.37255 0 0 5.37255 0 11.9999C0 18.6273 5.37255 23.9999 11.9999 23.9999Z" fill="url(#paint0_linear)"/>
<path d="M20.4487 5.6881C20.0369 5.3856 19.6003 5.10823 19.1427 4.85625C18.8908 4.3987 18.6134 3.96204 18.3109 3.55025C16.6312 1.26366 14.3896 0.00439453 11.9992 0.00439453C9.60874 0.00439453 7.36726 1.26366 5.68754 3.55025C5.38505 3.96204 5.10768 4.39863 4.8557 4.85618C4.39814 5.1081 3.96155 5.38554 3.54976 5.68803C1.26317 7.36774 0.00390625 9.60929 0.00390625 11.9997C0.00390625 14.3901 1.26317 16.6317 3.54976 18.3114C3.96155 18.6139 4.39814 18.8912 4.8557 19.1432C5.10761 19.6008 5.38505 20.0374 5.68754 20.4492C7.36726 22.7358 9.6088 23.995 11.9992 23.995C14.3896 23.995 16.6312 22.7358 18.3109 20.4492C18.6134 20.0374 18.8908 19.6008 19.1427 19.1432C19.6003 18.8912 20.0369 18.6138 20.4487 18.3113C22.7353 16.6316 23.9945 14.3901 23.9945 11.9996C23.9945 9.60923 22.7353 7.36781 20.4487 5.6881ZM11.9992 23.4305C11.3405 23.4305 10.6422 22.4491 10.0902 20.7747C10.7159 20.8483 11.3536 20.8865 11.9992 20.8865C12.6449 20.8865 13.2826 20.8483 13.9083 20.7747C13.3563 22.4491 12.658 23.4305 11.9992 23.4305ZM11.9992 20.3217C11.2855 20.3217 10.587 20.2734 9.90915 20.1818C9.53296 18.8517 9.25983 17.2549 9.10353 15.5116C10.0393 15.5785 11.0101 15.6129 11.9992 15.6129C12.9883 15.6129 13.9591 15.5784 14.8949 15.5116C14.7386 17.2549 14.4655 18.8516 14.0893 20.1818C13.4115 20.2734 12.713 20.3217 11.9992 20.3217ZM11.9992 0.569159C12.658 0.569159 13.3563 1.55047 13.9083 3.2249C13.2826 3.15128 12.6448 3.11314 11.9992 3.11314C11.3535 3.11314 10.7159 3.15128 10.0902 3.2249C10.6422 1.55047 11.3405 0.569159 11.9992 0.569159ZM11.9992 3.6779C12.713 3.6779 13.4115 3.72627 14.0893 3.81779C14.4655 5.14801 14.7386 6.74472 14.8949 8.48803C13.9591 8.42111 12.9883 8.38667 11.9992 8.38667C11.0102 8.38667 10.0393 8.42118 9.10353 8.48803C9.25983 6.74472 9.5329 5.14794 9.90915 3.81779C10.587 3.7262 11.2855 3.6779 11.9992 3.6779ZM8.95076 11.9998C8.95076 10.993 8.98708 10.0063 9.05706 9.05768C10.0057 8.9877 10.9924 8.95138 11.9992 8.95138C13.0061 8.95138 13.9928 8.9877 14.9414 9.05768C15.0114 10.0063 15.0477 10.993 15.0477 11.9998C15.0477 13.0067 15.0114 13.9934 14.9414 14.942C13.9928 15.012 13.0061 15.0483 11.9992 15.0483C10.9924 15.0483 10.0057 15.012 9.05706 14.942C8.98708 13.9933 8.95076 13.0067 8.95076 11.9998ZM8.48747 14.8955C6.74417 14.7392 5.14739 14.4661 3.81724 14.0898C3.72565 13.412 3.67735 12.7135 3.67735 11.9998C3.67735 11.286 3.72571 10.5876 3.81724 9.9097C5.14739 9.53352 6.74417 9.26038 8.48747 9.10409C8.42056 10.0398 8.38612 11.0107 8.38612 11.9998C8.38612 12.9889 8.42056 13.9597 8.48747 14.8955ZM15.511 9.10415C17.2543 9.26045 18.8511 9.53358 20.1813 9.90977C20.2729 10.5876 20.3212 11.2861 20.3212 11.9998C20.3212 12.7136 20.2728 13.412 20.1813 14.0899C18.8511 14.4661 17.2543 14.7392 15.511 14.8955C15.5779 13.9598 15.6124 12.989 15.6124 11.9998C15.6124 11.0107 15.5779 10.0399 15.511 9.10415ZM15.4658 8.53327C15.317 6.82453 15.0578 5.24877 14.7011 3.91335C16.1736 4.17418 17.5354 4.64306 18.7241 5.27494C19.3559 6.46371 19.8249 7.82543 20.0857 9.29801C18.7502 8.94122 17.1745 8.68201 15.4658 8.53327ZM8.53272 8.53327C6.82397 8.68201 5.24822 8.94116 3.91279 9.29794C4.17363 7.82536 4.64251 6.46364 5.27439 5.27487C6.46315 4.64306 7.82487 4.17412 9.29745 3.91335C8.94067 5.24884 8.68146 6.82453 8.53272 8.53327ZM3.22435 13.9089C1.54991 13.3569 0.568605 12.6586 0.568605 11.9998C0.568605 11.3411 1.54991 10.6428 3.22435 10.0908C3.15073 10.7165 3.11258 11.3542 3.11258 11.9998C3.11258 12.6455 3.15079 13.2832 3.22435 13.9089ZM8.53272 15.4663C8.68146 17.175 8.9406 18.7508 9.29739 20.0862C7.82481 19.8254 6.46309 19.3565 5.27432 18.7247C4.64251 17.5359 4.17357 16.1742 3.91273 14.7016C5.24828 15.0584 6.82397 15.3176 8.53272 15.4663ZM15.4658 15.4663C17.1745 15.3176 18.7503 15.0584 20.0857 14.7016C19.8249 16.1742 19.356 17.5358 18.7241 18.7247C17.5354 19.3565 16.1736 19.8254 14.7011 20.0863C15.0578 18.7508 15.317 17.1751 15.4658 15.4663ZM20.7742 10.0908C22.4486 10.6428 23.4298 11.3411 23.4298 11.9998C23.4298 12.6586 22.4485 13.3568 20.7742 13.9089C20.8478 13.2832 20.8859 12.6455 20.8859 11.9998C20.8859 11.3542 20.8477 10.7164 20.7742 10.0908ZM23.2965 10.7281C22.744 10.2569 21.8681 9.83335 20.6889 9.47096C20.4835 8.17076 20.12 6.93193 19.6112 5.79733C21.5419 7.05451 22.8847 8.78089 23.2965 10.7281ZM18.2018 4.38789C17.0671 3.87911 15.8284 3.51555 14.5281 3.31018C14.1657 2.13085 13.7421 1.255 13.271 0.702473C15.2182 1.11439 16.9445 2.45717 18.2018 4.38789ZM10.7275 0.702473C10.2564 1.255 9.83279 2.13085 9.47034 3.31018C8.17007 3.51555 6.93131 3.87904 5.79664 4.38789C7.05389 2.45717 8.78034 1.11439 10.7275 0.702473ZM4.38734 5.79726C3.87855 6.93187 3.515 8.17069 3.30969 9.47096C2.13036 9.83341 1.25451 10.2569 0.701985 10.7281C1.11384 8.78089 2.45655 7.05451 4.38734 5.79726ZM0.70192 13.2715C1.25445 13.7427 2.1303 14.1663 3.30962 14.5286C3.515 15.8289 3.87849 17.0677 4.38727 18.2023C2.45655 16.9451 1.11384 15.2187 0.70192 13.2715ZM5.79671 19.6117C6.93131 20.1205 8.17014 20.4841 9.47041 20.6894C9.83286 21.8688 10.2564 22.7446 10.7276 23.2971C8.78034 22.8852 7.05389 21.5425 5.79671 19.6117ZM13.271 23.2971C13.7421 22.7445 14.1657 21.8687 14.5281 20.6894C15.8284 20.484 17.0672 20.1205 18.2018 19.6117C16.9445 21.5424 15.2182 22.8852 13.271 23.2971ZM19.6112 18.2023C20.1199 17.0677 20.4835 15.8289 20.6888 14.5287C21.8681 14.1663 22.7439 13.7428 23.2965 13.2716C22.8847 15.2187 21.5419 16.9451 19.6112 18.2023Z" fill="url(#paint1_linear)"/>
<path d="M12.0006 22.7113C17.9164 22.7113 22.7121 17.9156 22.7121 11.9998C22.7121 6.08404 17.9164 1.28833 12.0006 1.28833C6.08477 1.28833 1.28906 6.08404 1.28906 11.9998C1.28906 17.9156 6.08477 22.7113 12.0006 22.7113Z" fill="url(#paint2_linear)"/>
<path d="M10.878 12.4997L11.3426 12.9642C11.5125 13.1341 11.608 13.3645 11.608 13.6049C11.608 14.1053 12.0136 14.5109 12.514 14.5109C13.0358 14.5109 13.4588 14.9339 13.4588 15.4557C13.4588 16.1342 13.3172 16.8053 13.0432 17.426L11.3706 21.2136C11.1417 21.7321 10.4633 21.8589 10.0625 21.4581C9.47838 20.874 9.15023 20.0817 9.15023 19.2556V18.815C9.15023 17.6664 8.69398 16.5649 7.88179 15.7527L7.83232 15.7033C7.06804 14.939 6.63867 13.9024 6.63867 12.8214V12.6635C6.63867 11.9138 7.24646 11.3059 7.99629 11.3059C9.07713 11.306 10.1137 11.7354 10.878 12.4997Z" fill="url(#paint3_linear)"/>
<path d="M7.87303 0.728945C4.86858 1.82944 2.42706 4.09702 1.09704 6.98262C0.939377 7.32456 0.861328 7.69788 0.861328 8.07446C0.861328 8.77586 1.13993 9.44848 1.63589 9.94444L1.88117 10.1897C2.98023 11.2888 4.47091 11.9062 6.02518 11.9062C6.25738 11.9062 6.44563 11.718 6.44563 11.4858C6.44563 11.2536 6.25738 11.0653 6.02518 11.0653H4.73272C4.13665 11.0653 3.65345 10.5821 3.65345 9.98604C3.65345 9.38996 4.13665 8.9067 4.73272 8.9067H5.74215C6.95253 8.9067 8.11337 8.42591 8.96923 7.56997L10.5278 6.0114C10.8672 5.672 11.3275 5.48133 11.8075 5.48133C12.5018 5.48133 13.135 5.08406 13.437 4.45889C13.8072 3.69265 13.249 2.803 12.398 2.803H10.3871C9.79588 2.803 9.31665 2.32371 9.31665 1.73251C9.31665 0.986395 8.57365 0.472275 7.87303 0.728945Z" fill="#4EBE37"/>
<path d="M12.3971 2.80302H10.3861C9.79486 2.80302 9.31563 2.32373 9.31563 1.73254C9.31563 1.69739 9.31348 1.66295 9.31023 1.62891C5.38988 2.64244 2.34044 5.82005 1.51172 9.81141C1.5513 9.85685 1.59198 9.9015 1.63488 9.94446L1.88016 10.1897C2.97922 11.2888 4.4699 11.9062 6.02417 11.9062C6.25636 11.9062 6.44462 11.718 6.44462 11.4858C6.44462 11.2536 6.25636 11.0653 6.02417 11.0653H4.73171C4.13563 11.0653 3.65243 10.5821 3.65243 9.986C3.65243 9.38986 4.13563 8.90666 4.73171 8.90666H5.74113C6.95151 8.90666 8.11235 8.42586 8.96822 7.56993L10.5268 6.01136C10.8662 5.67196 11.3265 5.48129 11.8065 5.48129C12.5008 5.48129 13.134 5.08402 13.436 4.45885C13.8063 3.69268 13.2481 2.80302 12.3971 2.80302Z" fill="url(#paint4_linear)"/>
<path d="M23.7202 9.41427C23.5544 8.65969 22.8797 8.12598 22.1072 8.12598H20.4156H19.5113C17.9744 8.12598 16.7285 9.37189 16.7285 10.9088V11.2473C16.7285 12.5973 17.8228 13.6916 19.1728 13.6916C19.8591 13.6916 20.4156 14.248 20.4156 14.9344V18.1797C20.4156 19.0254 21.5136 19.3623 21.9836 18.6592C22.9603 17.1981 23.6247 15.5103 23.8814 13.6916C23.9591 13.1391 23.9996 12.574 23.9996 11.9998C23.9996 11.112 23.9031 10.247 23.7202 9.41427Z" fill="url(#paint5_linear)"/>
<path d="M22.7122 6.58488H19.1278C18.4866 6.58488 17.9668 6.06509 17.9668 5.42391C17.9668 4.78272 18.4866 4.26294 19.1278 4.26294H21.1739C21.772 4.97124 22.2896 5.75003 22.7122 6.58488Z" fill="url(#paint6_linear)"/>
<path d="M17.3679 1.26562C18.1772 2.88089 18.6335 4.70381 18.6335 6.63355C18.6335 13.2609 13.2609 18.6335 6.63355 18.6335C4.70381 18.6335 2.88089 18.1773 1.26562 17.3679C3.23585 21.3002 7.30234 23.9999 12 23.9999C18.6274 23.9999 24 18.6274 24 12C23.9999 7.30234 21.3001 3.23585 17.3679 1.26562Z" fill="url(#paint7_linear)"/>
<defs>
<linearGradient id="paint0_linear" x1="6.18891" y1="6.18884" x2="20.7332" y2="20.7331" gradientUnits="userSpaceOnUse">
<stop stop-color="#208C93"/>
<stop offset="1" stop-color="#124F9A"/>
</linearGradient>
<linearGradient id="paint1_linear" x1="13.8333" y1="25.2113" x2="9.51546" y2="-5.89184" gradientUnits="userSpaceOnUse">
<stop stop-color="#18CFFC" stop-opacity="0"/>
<stop offset="1" stop-color="#1E8194"/>
</linearGradient>
<linearGradient id="paint2_linear" x1="14.5914" y1="14.5906" x2="1.00064" y2="2.49982" gradientUnits="userSpaceOnUse">
<stop stop-color="#055265" stop-opacity="0"/>
<stop offset="1" stop-color="#1E8594"/>
</linearGradient>
<linearGradient id="paint3_linear" x1="9.99939" y1="12.5" x2="10.5471" y2="21.9972" gradientUnits="userSpaceOnUse">
<stop stop-color="#59C643"/>
<stop offset="1" stop-color="#2C8519"/>
</linearGradient>
<linearGradient id="paint4_linear" x1="8.49918" y1="9" x2="3.70151" y2="2.81995" gradientUnits="userSpaceOnUse">
<stop stop-color="#92F37F" stop-opacity="0"/>
<stop offset="1" stop-color="#43A82E"/>
</linearGradient>
<linearGradient id="paint5_linear" x1="18.5508" y1="13.0234" x2="27.0236" y2="14.514" gradientUnits="userSpaceOnUse">
<stop stop-color="#59C643"/>
<stop offset="1" stop-color="#2D8B1A"/>
</linearGradient>
<linearGradient id="paint6_linear" x1="19.1561" y1="5.30491" x2="23.5712" y2="7.68758" gradientUnits="userSpaceOnUse">
<stop stop-color="#59C643"/>
<stop offset="1" stop-color="#2D8B1A"/>
</linearGradient>
<linearGradient id="paint7_linear" x1="14.2062" y1="13.2706" x2="30.7008" y2="-17.4069" gradientUnits="userSpaceOnUse">
<stop stop-color="#0469BC" stop-opacity="0"/>
<stop offset="1" stop-color="#0469BC"/>
</linearGradient>
</defs>
</svg>
