<svg xmlns="http://www.w3.org/2000/svg" xmlns:xlink="http://www.w3.org/1999/xlink" width="18" height="25" viewBox="0 0 18 25">
    <defs>
        <path id="a" d="M0 0h18v25H0z"/>
    </defs>
    <g fill="none" fill-rule="evenodd">
        <mask id="b" fill="#fff">
            <use xlink:href="#a"/>
        </mask>
        <path fill="#242424" d="M1.81 8.292h14.38v13.757c0 .66-.57 1.182-1.247 1.182H3.057c-.677 0-1.246-.521-1.246-1.182V8.292zM5.486 5.22C5.485 3.315 7.051 1.77 9 1.77c1.95 0 3.515 1.545 3.515 3.45v1.302h-7.03V5.22zM3.057 25h11.886C16.615 25 18 23.688 18 22.049V7.386c0-.49-.426-.864-.927-.864h-2.748V5.22C14.325 2.342 11.945 0 9 0 6.055 0 3.675 2.342 3.675 5.22v1.302H.927c-.501 0-.927.375-.927.864v14.663C0 23.689 1.385 25 3.057 25z" mask="url(#b)"/>
    </g>
</svg>
