<?xml version="1.0" encoding="UTF-8"?>
<svg width="20px" height="20px" viewBox="0 0 20 20" version="1.1" xmlns="http://www.w3.org/2000/svg" xmlns:xlink="http://www.w3.org/1999/xlink">
    <!-- Generator: Sketch 51.3 (57544) - http://www.bohemiancoding.com/sketch -->
    <title>m_pinterest</title>
    <desc>Created with Sketch.</desc>
    <defs></defs>
    <g id="m_pinterest" stroke="none" stroke-width="1" fill="none" fill-rule="evenodd">
        <ellipse id="Oval" fill="#FFFFFF" fill-rule="nonzero" cx="10" cy="9.95901639" rx="10" ry="9.95901639"></ellipse>
        <path d="M10,0 C4.47736626,0 0,4.45901639 0,9.95901639 C0,14.1803279 2.63374486,17.7868852 6.35390947,19.2377049 C6.26337449,18.4508197 6.18930041,17.2377049 6.38683128,16.3770492 C6.56790123,15.5983607 7.55555556,11.4262295 7.55555556,11.4262295 C7.55555556,11.4262295 7.25925926,10.8278689 7.25925926,9.95081967 C7.25925926,8.56557377 8.06584362,7.53278689 9.06995885,7.53278689 C9.92592593,7.53278689 10.3374486,8.17213115 10.3374486,8.93442623 C10.3374486,9.78688525 9.79423868,11.0655738 9.50617284,12.2540984 C9.26748971,13.2459016 10.0082305,14.057377 10.9876543,14.057377 C12.7654321,14.057377 14.1316872,12.1885246 14.1316872,9.5 C14.1316872,7.1147541 12.4115226,5.45081967 9.95061728,5.45081967 C7.10288066,5.45081967 5.43209877,7.57377049 5.43209877,9.7704918 C5.43209877,10.6229508 5.76131687,11.5409836 6.17283951,12.0409836 C6.25514403,12.1393443 6.26337449,12.2295082 6.23868313,12.3278689 C6.16460905,12.6393443 5.99176955,13.3196721 5.95884774,13.4590164 C5.91769547,13.6393443 5.81069959,13.6803279 5.62139918,13.5901639 C4.37037037,13.0081967 3.58847737,11.1967213 3.58847737,9.7295082 C3.58847737,6.59016393 5.87654321,3.70491803 10.1975309,3.70491803 C13.6625514,3.70491803 16.3621399,6.16393443 16.3621399,9.45901639 C16.3621399,12.8934426 14.1893004,15.6557377 11.1769547,15.6557377 C10.1646091,15.6557377 9.20987654,15.1311475 8.88888889,14.5081967 C8.88888889,14.5081967 8.38683128,16.4098361 8.26337449,16.8770492 C8.04115226,17.7459016 7.43209877,18.8278689 7.02057613,19.4918033 C7.95884774,19.7786885 8.94650206,19.9344262 9.98353909,19.9344262 C15.5061728,19.9344262 19.9835391,15.4754098 19.9835391,9.97540984 C20,4.45901639 15.5226337,0 10,0 Z" id="Shape" fill="#505050" fill-rule="nonzero"></path>
    </g>
</svg>