<?xml version="1.0" encoding="UTF-8"?>
<svg width="20px" height="20px" viewBox="0 0 20 20" version="1.1" xmlns="http://www.w3.org/2000/svg" xmlns:xlink="http://www.w3.org/1999/xlink">
    <!-- Generator: Sketch 51.3 (57544) - http://www.bohemiancoding.com/sketch -->
    <title>m_twitter</title>
    <desc>Created with Sketch.</desc>
    <defs></defs>
    <g id="m_twitter" stroke="none" stroke-width="1" fill="none" fill-rule="evenodd">
        <circle id="Oval" fill="#505050" fill-rule="nonzero" cx="10" cy="10" r="10"></circle>
        <path d="M8.17,15.275 C12.605,15.275 15.03,11.6 15.03,8.415 C15.03,8.31 15.03,8.205 15.025,8.105 C15.495,7.765 15.905,7.34 16.23,6.855 C15.8,7.045 15.335,7.175 14.845,7.235 C15.345,6.935 15.725,6.465 15.905,5.9 C15.44,6.175 14.925,6.375 14.375,6.485 C13.935,6.015 13.31,5.725 12.615,5.725 C11.285,5.725 10.205,6.805 10.205,8.135 C10.205,8.325 10.225,8.51 10.27,8.685 C8.265,8.585 6.49,7.625 5.3,6.165 C5.095,6.52 4.975,6.935 4.975,7.375 C4.975,8.21 5.4,8.95 6.05,9.38 C5.655,9.37 5.285,9.26 4.96,9.08 C4.96,9.09 4.96,9.1 4.96,9.11 C4.96,10.28 5.79,11.25 6.895,11.475 C6.695,11.53 6.48,11.56 6.26,11.56 C6.105,11.56 5.955,11.545 5.805,11.515 C6.11,12.475 7,13.17 8.055,13.19 C7.23,13.835 6.19,14.22 5.06,14.22 C4.865,14.22 4.675,14.21 4.485,14.185 C5.54,14.875 6.81,15.275 8.17,15.275" id="Shape" fill="#FFFFFF" fill-rule="nonzero"></path>
    </g>
</svg>