<svg xmlns="http://www.w3.org/2000/svg" xmlns:xlink="http://www.w3.org/1999/xlink" width="15" height="10" viewBox="0 0 15 10">
    <defs>
        <path id="a" d="M0 .009h4.963v7.938H0z"/>
        <path id="c" d="M.489.009h4.966v7.954H.489z"/>
    </defs>
    <g fill="none" fill-rule="evenodd">
        <g transform="translate(0 .68)">
            <mask id="b" fill="#fff">
                <use xlink:href="#a"/>
            </mask>
            <path fill="#262626" d="M.184.009A1.38 1.38 0 0 0 0 .668v6.635c0 .24.061.465.169.644l4.794-4.314L.183.01z" mask="url(#b)"/>
        </g>
        <g transform="translate(9.545 .68)">
            <mask id="d" fill="#fff">
                <use xlink:href="#c"/>
            </mask>
            <path fill="#262626" d="M5.284.009L.489 3.649l4.795 4.314a1.35 1.35 0 0 0 .168-.644V.683A1.138 1.138 0 0 0 5.284.01" mask="url(#d)"/>
        </g>
        <path fill="#262626" d="M8.38 5.602c-.245.195-.552.3-.873.3-.322 0-.629-.105-.874-.3L5.546 4.78.674 9.152c.2.12.444.195.705.195h12.255c.26 0 .49-.075.705-.195L9.468 4.78l-1.088.823z"/>
        <path fill="#262626" d="M7.936 5.033L14.323.18c-.199-.12-.428-.18-.689-.18H1.38c-.245 0-.475.06-.69.18l6.389 4.853c.138.105.275.15.429.15a.649.649 0 0 0 .429-.15z"/>
    </g>
</svg>
