<svg width="56" height="56" xmlns="http://www.w3.org/2000/svg" xmlns:xlink="http://www.w3.org/1999/xlink"><defs><path id="c" d="M.077.094H39.94V69.93H.077z"/><path id="e" d="M.077.094H39.94V69.93H.077z"/><path id="g" d="M.077.094H39.94V69.93H.077z"/><path id="i" d="M.077.094H39.94V69.93H.077z"/><path id="k" d="M.077.094H39.94V69.93H.077z"/><path id="m" d="M.077.094H39.94V69.93H.077z"/><path id="o" d="M.077.094H39.94V69.93H.077z"/><path id="q" d="M.077.094H39.94V69.93H.077z"/><path id="s" d="M.077.094H39.94V69.93H.077z"/><path id="u" d="M.077.094H39.94V69.93H.077z"/><path id="w" d="M.077.094H39.94V69.93H.077z"/><path id="y" d="M.077.094H39.94V69.93H.077z"/><path id="A" d="M.077.094H39.94V69.93H.077z"/><circle id="a" cx="28" cy="28" r="28"/></defs><g fill="none" fill-rule="evenodd"><mask id="b" fill="#fff"><use xlink:href="#a"/></mask><use fill="#FF9C62" xlink:href="#a"/><g mask="url(#b)"><g transform="translate(8.443 8)"><mask id="d" fill="#fff"><use xlink:href="#c"/></mask><path d="M39.518 55.692c-.02-.212-.047-.424-.068-.636.011-.142.023-.244.04-.184-.088-.439.027-.74-.103-1.36.028-.028-.018-.472.058-.376-.049-.573-.043.139-.082.092-.137-.88.022-2.086-.183-3.352-.105-1.001-.207-1.258-.307-2.072l-.018-.3c.033-.161.112.342.112.342a9.81 9.81 0 00-.091-1.494c.032.105.046-.005.067-.167-.035-.418-.123-.273-.117-.828.039.093.097.211.143.41-.07-.488-.137-.978-.209-1.484.04-.14.098.303.143.481-.061-.573-.153-1.485-.246-1.657v.371c-.02-.209.06-.112.086.04.1.488.024.712-.002.742l-.044-.362c-.141.385.13 1.458.168 2.192l-.116-.24c-.168-2.554-.342-4.72-.464-5.586l-.01-.074c.05.03.103.079.147.08-.003.049-.001.114.015.218l.121.193-.08-.444c.047-.078.067-.296.034-.822l-.2-.793.028-.268.103.676c.006-.393-.085-.63-.163-.896a.938.938 0 00.025-.348l-.245-.77c.04-.103.156.338.108-.197-.113-.36-.066.374-.195-.231.006-.396.072-.292-.047-.735.026-.07.061.023.103.2-.1-.396-.172-1.062-.274-1.257.017-.415-.218-1.353-.085-1.338a7.72 7.72 0 01-.262-1.057c.124.323.08-.025.018-.432-.08-.404-.175-.868-.075-.797-.24-.465-.447-1.773-.746-2.625.022.046.068.136.081.215-.111-.493-.11-.646-.169-.967-.126-.034-.364-.787-.56-1.17-.08-.625.242.32.285.105-.02.014-.055-.042-.097-.13l-.069-.152c-.02-.044-.057-.145-.057-.13-.07-.238-.135-.453-.152-.344-.028-.475-.05-.405-.005-.663-.158-.052-.113-.427-.279-.794-.07-.686.1-.202-.102-.93-.021-.178.02-.108.068.007s.091.278.091.278c-.165-.751-.185-.328-.28-.473-.253-.88-.027-.43-.05-.746-.175-.549-.394-.945-.517-1.354.007-.036-.012-.117.04-.031-.254-.556-.59-1.714-.992-2.317a.299.299 0 01-.015-.096c0 .127-.044.165-.09.16-.141-.315-.334-.548-.331-.695.094.19.127.193.192.272l-.191-.31c-.059-.336.259.425.32.396-.331-.631-.82-1.303-1.102-1.766.034-.16.707 1.061.4.396.143.244.26.501.388.752-.171-.642.234.46.1-.144-.531-.99-.667-1.066-1.332-1.975-.208-.158-.009.114-.217-.041-.267-.283-.48-.502-.586-.633-.028-.04-.05-.071-.022-.11.016-.029.033-.05.054-.13.08-.25.15-.456.101-1.035-.063-.3-.178-.415-.127-1.23l.12.275c-.02-1.066-.174-.602-.164-1.715.06.194.087.83.092.67.048-.726-.094-.506-.134-1.057l.092-.122a65.794 65.794 0 00-.492-3.579c.039.065.1.274.09-.018-.27-1.551-.459-3.324-.614-4.836l-.167-.56c-.017-.133.004-.254.04-.112-.05-.59-.057-.021-.13-.297-.054-.332-.014-.448.04-.241a98.365 98.365 0 01-.09-.437.799.799 0 00-.43-.541.926.926 0 00-.687-.056.718.718 0 00-.323.204c-.077.088-.107.139-.164.21l-.306.397c-.199.269-.38.544-.56.795-.16.261-.321.497-.458.703.024-.07.058-.135.087-.203-.454.76-.301.95-.682 1.664.01-.05.03-.099.044-.148-.752 1.755-.914 3.86-1.018 5.288.056.138.06.601.072 1.047.026.445.06.871.155.922.01.427.017.637.022.836l.008.15c.003.056-.003.046-.004.072-.007.033-.003.074-.019.1a1.022 1.022 0 00-.075-.019c-.043-.004.005-.012-.2-.01-.412.009-.602.137-1.098.19l-.02-.089-.666.144-.365-.08-.46.056c.183-.007.393.012.367.04a5.65 5.65 0 01-.552.043.944.944 0 01-.12-.007c-.026-.017-.018-.075-.026-.103l-.006-.055-.023-.116-.038-.196c-.02-.112-.026-.182-.017-.19a26.711 26.711 0 00-.658-1.598c.032.014.093.13.159.267-.216-.475.096-.05-.253-.721.025.112-.075-.036-.099-.047-.108-.411-.507-1.289-.866-1.906l.119.093c-.58-1.154-1.391-2.347-2.32-3.467.307.422.148.392-.131.074l-.035-.191c-.222-.172.256.362-.16-.022-.222-.28-.428-.292-.378-.323.018-.017.15-.015.297.07-.262-.175-.624-.186-.872-.033-.07 0 .142-.12.222-.162-.126.04-.285.1-.449.234a.952.952 0 00-.298.427l-.04.106c-.106.283-.201.587-.195.791l-.036.03c-.314 1.43-.334 2.105-.33 3.292.078.023.075.487.168.833.044.863.143 1.835.46 2.839.266.677.143.21.276.455-.03.025-.004.143.005.21-.087.012-.12.005-.081-.031l-.103.032a7.572 7.572 0 00-.974.389c-.405.195-.836.431-1.501.858.163-.061.337-.145.264-.073-.242.153-.577.303-.56.252l.06-.046c-.365.252-.766.501-1.185.738l-.318.174c-.057.034-.213.092-.315.137-.229.096-.46.194-.687.303-.46.222-3.416 1.405-3.808 1.693-.569.358.305-.268-.136-.033-1.24.966-2.07 1.402-3.035 2.24-.47.187-1.204.693-1.953 1.203-.768.495-1.626 1.055-2.153 1.622l.097-.034c-.207.328-.303.37-.462.628.051-.026.26-.358.157-.13-.198.37-.317.795-.32 1.214-.005.417.07.823.184 1.208.24.767.62 1.459 1.019 2.123l.575.916c.06.162.133.36.236.558.089.198.31.462.532.581.105.063.2.111.29.155l.216.105a2.746 2.746 0 00.488.34c.404.228.846.318 1.232.384.586.083.753.015.955-.027.201-.044.436-.07 1.143-.02l-.401.1c1.14-.073 2.695.317 3.823.353 1.114.042 2.256.141 3.351.144-.131.014-.137.043-.35.032.458.095 1.71.092 1.72.035.341.022.077.055.286.094.23.031.523.023.788.016.132-.003.258-.006.365-.003.056.001.054.006.062.024 0 .01-.032.02-.04.026.019-.016.092-.025.07.035l.003.194c.005.068.016.083.04.012-.085.809-.055 1.555-.141 2.199.066.428-.126 1.386-.006 1.528-.128-.065-.19 1.417-.158 1.933-.03-.173-.068.444-.112.24-.032.585-.04 1.123.035 1.025-.191 1.073.063 2.18-.159 2.777.02 1.747.02 3.36.003 4.93-.13-.063.039-1.734-.102-1.673.01 1.49.098 2.352.021 3.825-.03.381-.05-.22-.07-.349.01 1.488-.098 2.872-.066 4.197-.012-.005-.02-.147-.027-.283-.004.261-.037.605.024.578l-.01-.255c.1-.413.153 1.04.197 1.088-.16-.446-.083 1.304-.28.596.007.171.029.387.07.349-.02.254-.045.334-.083.075.005.934.079.604.052 1.45-.029-.004-.035-.175-.067-.264.044.43.088.862.042 1.575-.017-.043-.042.04-.035-.174-.028 1.227.088 2.094-.007 3.438-.115-.398-.055.458-.167.527l.011.724.062-.29c-.01.318 0 .616.007.905.001.143.954 5.808 1.082 5.998.128.19.334.403.453.535l-.003-.001c.288.17.594.303 1.05.468.114.065-.134.089-.06.132.087-.002.226.025.395.044.084.015.177.019.272.03.032 0 .177.04.265.052.407.074.839.013 1.025-.087-.128.05-.128.108-.079.11.089-.042.173-.089.253-.141.303-.079.346-.104.32-.038.164-.073.176-.095.202-.117.04.005.016-.031-.002-.058-.011-.004-.018-.01 0-.026.006-.006.03.005.078.03.04.024.132.07.293.14-.085-.023-.048 0-.222-.059 1.042.474 2.153.27 3.063-.13.153-.017-.03.089-.238.177-.202.089-.41.146-.228.14a3.49 3.49 0 00.387-.158l.175-.089.087-.053.328.103c.148.042.298.077.448.107.299.06.603.097.896.126l1.722.193-.252-.04c.205-.132 1.005.188 1.704.166-.17-.002-.23.068-.182.055.935.096 1.92.105 3.343.044l-.176.04c.555.038 1.462-.012 2.063-.062.174-.054.515-.097.3-.127a4.969 4.969 0 001.366-.173c.339-.102.655-.258.938-.452a9.853 9.853 0 002.718-.387.579.579 0 00.418-.544c.109-4.164-.005-8.33-.382-12.48" fill="#D4EFFF" fill-rule="nonzero" mask="url(#d)"/></g><g transform="translate(8.443 8)"><mask id="f" fill="#fff"><use xlink:href="#e"/></mask><path d="M28.905 4.732c-.138-.39-.68-.442-.896 0-1.298 2.647-.522 7.672-.438 7.846.26.534.728 1.012 1.258 1.288.158.083.667.073.693-.051a17.22 17.22 0 00-.617-9.083" fill="#0075BC" fill-rule="nonzero" mask="url(#f)"/></g><g transform="translate(8.443 8)"><mask id="h" fill="#fff"><use xlink:href="#g"/></mask><path d="M18.338 6.057c-.207-.359-.75-.312-.882.16-.794 2.836.904 5.802 1.019 5.958.353.479.5.356 1.073.533.17.053 1.294-.33 1.297-.458.063-3.031-.986-3.556-2.507-6.193" fill="#0075BC" fill-rule="nonzero" mask="url(#h)"/></g><g transform="translate(8.443 8)"><mask id="j" fill="#fff"><use xlink:href="#i"/></mask><path d="M24.08 26.84a2.89 2.89 0 001.24.718c.239.065.497.104.743.093.197-.01.56-.038.743-.113.423-.117.79-.329 1.1-.635.205-.187.347-.41.45-.656.415-.497.677-1.123.622-1.775-.044-.536-.165-.96-.495-1.38a1.726 1.726 0 00-.646-.587l-.55-.23c-.572-.237-1.328-.222-1.918-.055-.926.26-1.72 1.02-1.982 1.94a2.742 2.742 0 00.693 2.68" fill="#0075BC" fill-rule="nonzero" mask="url(#j)"/></g><g transform="translate(8.443 8)"><mask id="l" fill="#fff"><use xlink:href="#k"/></mask><path d="M7.337 25.742c-.282.004-2.243 1.938-2.515 1.978-.364.055-.728.095-1.11-.008-.548-.147-.99-.514-1.33-.953-.33-.426-.516-.907-.738-1.383.002-.003.01-.006.01-.01.43-.049.947-.127 1.36-.226.672-.16.52-1.181-.162-1.182-.935-.002-1.901.193-2.83.3-.815.095-.812 1.374 0 1.268.282-.034.674-.073.964-.1 0 .003.01.005.014.007.242 1.924 3.029 4.156 4.76 2.456l2.166-2.147h-.589z" fill="#000" fill-rule="nonzero" mask="url(#l)"/></g><g transform="translate(8.443 8)"><mask id="n" fill="#fff"><use xlink:href="#m"/></mask><path d="M19.638 18.964a25.687 25.687 0 011.793-.508c.637-.15 1.178-.16 1.824-.167.713-.008.831.811.335 1.153-.489.338-.9.629-1.446.89-.518.245-1.04.483-1.558.73-1.58.755-2.651-1.563-.948-2.098" fill="#000" fill-rule="nonzero" mask="url(#n)"/></g><g transform="translate(8.443 8)"><mask id="p" fill="#fff"><use xlink:href="#o"/></mask><path d="M18.615 46.243c-.025-.717-.448-1.413-.995-1.803-.359-.244-.82-.436-1.234-.425-.14.008-.262.005-.395.004-.205.02-.4.087-.58.193-.342.165-.595.388-.845.707-.307.388-.393.885-.254 1.4-.01.211.022.41.124.62.149.337.39.619.71.847.134.123.428.248.59.317.205.088.43.133.643.15.407.039.838-.046 1.173-.211a1.912 1.912 0 001.063-1.8" fill="#2155A4" fill-rule="nonzero" mask="url(#p)"/></g><g transform="translate(8.443 8)"><mask id="r" fill="#fff"><use xlink:href="#q"/></mask><path d="M22.961 47.018c-.123-.706-.647-1.346-1.294-1.646-.417-.188-.959-.301-1.41-.206l-.433.083a1.382 1.382 0 00-.57.326c-.312.248-.48.534-.614.915-.162.463-.08.97.165 1.413.04.196.117.384.251.557.202.28.47.5.801.649.139.082.434.162.594.194a2.281 2.281 0 001.71-.359 1.941 1.941 0 00.8-1.926" fill="#0075BC" fill-rule="nonzero" mask="url(#r)"/></g><g transform="translate(8.443 8)"><mask id="t" fill="#fff"><use xlink:href="#s"/></mask><path d="M27.387 47.31c-.194-.698-.783-1.272-1.466-1.507-.437-.141-.998-.199-1.443-.054l-.429.134a1.38 1.38 0 00-.532.39c-.284.286-.414.591-.495.986-.1.481.049.971.343 1.38.064.191.162.368.314.524.23.248.517.441.857.55.146.067.443.11.605.127.2.024.417.002.615-.036a2.253 2.253 0 001.035-.5 1.936 1.936 0 00.596-1.994" fill="#033753" fill-rule="nonzero" mask="url(#t)"/></g><g transform="translate(8.443 8)"><mask id="v" fill="#fff"><use xlink:href="#u"/></mask><path d="M31.812 47.143c-.27-.663-.914-1.182-1.611-1.338-.449-.106-1.008-.092-1.436.089l-.412.178a1.342 1.342 0 00-.49.438c-.254.316-.352.633-.393 1.034-.05.49.149.96.482 1.334.084.184.199.353.366.493.255.229.56.38.91.462.153.056.454.064.617.063.204 0 .418-.038.612-.095.37-.116.732-.339.984-.606a1.93 1.93 0 00.371-2.052" fill="#2155A4" fill-rule="nonzero" mask="url(#v)"/></g><g transform="translate(8.443 8)"><mask id="x" fill="#fff"><use xlink:href="#w"/></mask><path d="M36.138 46.393a2.41 2.41 0 00-1.767-1.082c-.442-.039-.98.036-1.372.272-.125.079-.253.147-.38.222-.185.13-.327.296-.429.495-.211.342-.275.664-.27 1.068.007.488.258.944.636 1.273.105.172.24.325.425.444.283.2.61.315.977.346.16.03.467.011.634-.017.208-.03.42-.099.609-.183.362-.163.699-.45.91-.75.451-.662.418-1.46.027-2.088" fill="#0075BC" fill-rule="nonzero" mask="url(#x)"/></g><g transform="translate(8.443 8)"><mask id="z" fill="#fff"><use xlink:href="#y"/></mask><path d="M39.958 44.61c-.612-.398-1.299-.573-1.897-.495-.37.065-.817.24-1.118.538-.096.096-.188.2-.294.29a1.32 1.32 0 00-.302.557c-.131.378-.14.697-.061 1.096.092.479.419.89.862 1.136.138.15.305.272.518.352.329.142.693.162 1.084.113.176-.007.495-.13.666-.198.211-.08.421-.227.6-.376.34-.27.613-.704.727-1.071.24-.85-.165-1.526-.785-1.942" fill="#033753" fill-rule="nonzero" mask="url(#z)"/></g><g transform="translate(8.443 8)"><mask id="B" fill="#fff"><use xlink:href="#A"/></mask><path d="M24.588 14.237c-2.966.69-5.298.36-7.764-.885.004-.063.007-.126.02-.194.422-2.09 1.554-4.064 2.259-6.053.744-2.097 1.365-4.221 2.032-6.349.236-.757.918-1.401 1.403-.804 1.602 1.982 2.584 4.798 3.558 7.278.45 1.144.869 2.831 1.402 3.924.294.602.895 1.602.874 1.862-.03.369-2.592.943-3.784 1.22" fill="#2155A4" fill-rule="nonzero" mask="url(#B)"/></g><path d="M27.613 6.056c.076-.097.188-.19.319-.26.142-.246.377-.46.706-.612.56-.26 1.322-.234 1.88.01.596.26.925.754.925 1.276 0 .506-.38 1.042-.95 1.293a2.468 2.468 0 01-.527.163 1.53 1.53 0 01-.837.03 2.745 2.745 0 01-.677-.165c-.544-.213-.967-.65-1.006-1.126a.894.894 0 01.167-.609" fill="#033753" fill-rule="nonzero"/><path d="M27.395 44.562c.217.273.556.438.925.438h.042a1.14 1.14 0 00.967-.59.8.8 0 00.656-.02.77.77 0 00.419-.464c.083-.257.033-.567-.136-.828-.057-.088-.18-.122-.289-.08-.107.042-.158.144-.121.242.06.158.102.288.072.444a.272.272 0 01-.102.2c-.043.04-.102.089-.16.08-.03-.003-.11-.028-.226-.19a.25.25 0 00-.15-.16.315.315 0 00-.278.02.218.218 0 00-.105.21.596.596 0 01-.977.512.616.616 0 01-.225-.456c-.001-.134-.117-.235-.27-.235-.151 0-.267.1-.27.234a.397.397 0 01-.23.36.637.637 0 01-.57-.01c-.338-.172-.393-.486-.373-.902.006-.116-.085-.211-.216-.229-.128-.015-.252.05-.286.163-.1.33-.044.688.155.983.18.267.459.451.785.519.357.073.716-.022.963-.241m3.333 2.142a.608.608 0 00.386.018c.117.164.336.271.582.278h.024a.817.817 0 00.55-.201c.15.099.36.14.57.105a.78.78 0 00.48-.257.485.485 0 00.094-.488c-.024-.064-.107-.104-.2-.093-.09.01-.153.065-.15.13.011.194-.02.338-.205.416a.417.417 0 01-.31.005c-.077-.032-.12-.088-.121-.156-.002-.074-.083-.132-.187-.132-.103 0-.184.058-.186.132a.263.263 0 01-.124.205.352.352 0 01-.223.062.347.347 0 01-.215-.078.241.241 0 01-.092-.214c.006-.047-.02-.092-.072-.118a.254.254 0 00-.191-.011.158.158 0 00-.103.085c-.066.075-.106.08-.111.08-.01.002-.043-.01-.073-.034a.115.115 0 01-.053-.094c-.015-.06.009-.118.044-.194.025-.057-.012-.115-.087-.14-.077-.024-.164-.004-.205.047-.102.13-.133.283-.083.412.04.104.13.185.261.235m-3.614 3.018c.117.164.336.271.582.278h.024a.812.812 0 00.55-.201.81.81 0 00.57.106c.2-.034.37-.126.48-.259a.487.487 0 00.094-.487c-.025-.064-.11-.102-.2-.092-.09.01-.153.065-.15.13.012.193-.018.337-.205.415a.417.417 0 01-.31.005c-.077-.032-.12-.087-.121-.156-.002-.074-.083-.132-.186-.132s-.185.058-.187.133a.262.262 0 01-.124.205.353.353 0 01-.223.061.346.346 0 01-.214-.078.242.242 0 01-.093-.214c.01-.074-.06-.135-.162-.142-.09-.004-.178.036-.204.099-.065.074-.106.08-.11.08a.148.148 0 01-.073-.034.117.117 0 01-.054-.094c-.014-.06.009-.119.043-.194.026-.055-.01-.116-.085-.14-.077-.025-.165-.005-.206.046-.103.13-.133.284-.083.413a.432.432 0 00.26.234.607.607 0 00.387.018" fill="#9ADAFF" fill-rule="nonzero"/></g></g></svg>